<svg version="1.1" id="Layer_1" xmlns="http://www.w3.org/2000/svg" xmlns:xlink="http://www.w3.org/1999/xlink" x="0px" y="0px"
	 width="100%" viewBox="0 0 512 512" enable-background="new 0 0 512 512" xml:space="preserve">
<path fill="#7AC043" opacity="1.000000" stroke="none"
	d="
M288.196686,450.051117
	C296.253998,448.261444 304.107544,447.176392 311.441742,444.608093
	C321.732117,441.004578 331.865906,436.765198 341.651917,431.954163
	C356.379761,424.713593 369.640594,415.261963 382.188446,404.549988
	C399.831970,389.487732 414.064697,371.732452 425.413086,351.793549
	C436.062073,333.083435 443.698486,312.950684 447.441742,291.647369
	C449.298218,281.081757 450.826782,270.278961 450.734161,259.598846
	C450.633362,247.977158 449.072845,236.269028 447.053101,224.791382
	C445.085602,213.610504 441.999512,202.597168 438.874939,191.661575
	C437.320221,186.220306 434.635406,181.093597 432.358948,175.869400
	C430.370331,171.305679 431.123413,167.343857 434.620941,163.856827
	C440.638397,157.857422 446.609833,151.810822 452.692627,145.878418
	C456.247467,142.411438 460.881195,143.296524 463.039612,147.713440
	C472.519836,167.113403 480.611542,187.068237 484.059601,208.474442
	C486.204071,221.787720 487.367981,235.290909 488.328827,248.754776
	C489.538574,265.706573 487.606750,282.492279 485.196991,299.312012
	C482.665283,316.982880 477.275208,333.770081 470.656464,350.087311
	C466.168823,361.150726 460.015564,371.682922 453.515808,381.747833
	C446.030975,393.338074 437.889740,404.611847 429.004028,415.155426
	C422.094208,423.354462 414.069336,430.799164 405.699463,437.534546
	C395.699158,445.581909 385.190063,453.155853 374.211914,459.794891
	C353.702728,472.197845 331.507355,480.806824 308.068176,485.957153
	C294.441254,488.951385 280.739777,491.506805 266.645935,491.049225
	C258.335236,490.779419 249.997879,490.729797 241.691544,491.059967
	C227.394028,491.628357 213.386566,489.311432 199.788147,485.677765
	C184.402023,481.566467 169.058456,476.711273 154.464401,470.402802
	C142.494766,465.228668 131.061234,458.267700 120.459473,450.616882
	C107.775642,441.463562 95.277740,431.651855 84.456108,420.431000
	C73.531746,409.103760 64.301483,396.025635 55.163406,383.123627
	C44.793671,368.482605 37.400379,352.074097 31.792105,335.134003
	C27.538137,322.284668 25.075256,308.812439 22.268389,295.521698
	C18.889874,279.524170 20.238564,263.235229 19.970255,247.047485
	C19.726776,232.357803 22.434662,218.136429 25.320625,203.797607
	C28.422112,188.388000 33.304058,173.778885 39.692009,159.486374
	C46.415161,144.443878 54.185417,129.999512 64.506355,117.216743
	C74.246902,105.152824 84.324600,93.198021 95.519127,82.521774
	C104.808136,73.662834 115.528435,66.096893 126.369118,59.132538
	C136.723801,52.480415 147.671036,46.404934 159.051392,41.784248
	C172.705185,36.240498 186.981476,32.109192 201.194641,28.097704
	C215.493195,24.062113 230.214706,23.063374 245.118546,22.793522
	C261.933472,22.489059 278.489807,23.106285 295.169159,25.729807
	C319.087585,29.491968 341.665009,36.944016 362.930878,48.104076
	C374.456543,54.152592 385.048035,61.980721 396.063599,69.001869
	C400.392639,71.761116 399.266083,75.730225 397.349701,78.833817
	C392.974457,85.919609 387.955902,92.607460 383.218231,99.470459
	C380.348175,103.628014 377.255890,104.206917 372.936371,101.515633
	C361.613770,94.461090 350.652405,86.691689 338.822632,80.618179
	C321.225586,71.583733 302.507599,65.353416 282.702667,62.992340
	C273.907166,61.943768 265.080719,60.058769 256.301971,60.234726
	C244.515991,60.470951 232.719040,62.010147 221.005768,63.579418
	C204.549805,65.784065 188.937393,71.265663 173.982040,78.190453
	C156.952408,86.075706 140.835419,95.707733 127.006721,108.603180
	C118.960442,116.106468 110.656586,123.528183 103.788727,132.050446
	C95.512764,142.319977 87.623917,153.177246 81.434013,164.776184
	C74.970993,176.886871 69.968819,189.935516 65.715729,203.025009
	C60.965027,217.645966 57.495472,232.744141 58.026546,248.358047
	C58.436344,260.406433 58.471024,272.513428 59.770351,284.475098
	C61.800014,303.160309 67.644798,320.974670 75.577309,337.907715
	C86.717697,361.688416 101.874878,382.785553 121.225754,400.658661
	C134.581161,412.994141 149.229126,423.794525 165.608398,431.609985
	C178.930893,437.966888 192.777893,443.748932 206.988922,447.562744
	C219.649506,450.960419 233.136780,451.245972 246.243362,453.022034
	C259.795624,454.858490 273.087891,452.460999 286.428314,450.766144
	C286.893555,450.707001 287.317810,450.325226 288.196686,450.051117
z"/>
<path fill="#7AC043" opacity="1.000000" stroke="none"
	d="
M325.753723,276.742371
	C316.690979,287.888123 307.847351,298.750092 299.080597,309.673737
	C288.849030,322.422577 278.775543,335.299438 268.443542,347.965820
	C264.642883,352.625183 260.724274,357.363556 256.096832,361.128510
	C250.413910,365.752228 232.149002,364.962524 226.692307,358.344025
	C217.051788,346.650879 206.906891,335.373474 196.969177,323.925476
	C189.352539,315.151276 181.701187,306.406982 174.116989,297.604858
	C164.272385,286.179352 154.530151,274.665344 144.649109,263.271606
	C135.074539,252.231262 125.792091,240.894394 115.618736,230.429092
	C106.023842,220.558823 104.823021,198.588699 118.585297,190.769211
	C127.375893,185.774521 142.867508,187.380951 150.427261,194.958084
	C171.713730,216.293472 193.018173,237.611267 214.396164,258.854858
	C223.933731,268.332428 233.664459,277.615601 243.598206,287.269470
	C250.467514,279.211365 257.130249,271.499268 263.676575,263.689606
	C271.511566,254.342575 279.258759,244.921844 287.022888,235.515625
	C297.758545,222.509430 308.443665,209.461411 319.209717,196.480423
	C326.455872,187.743469 333.854340,179.132782 341.095520,170.391754
	C351.994751,157.234924 362.601654,143.829681 373.721161,130.863007
	C390.041382,111.831673 406.571075,92.975098 423.279236,74.283340
	C431.300842,65.309418 439.577057,56.488235 448.478851,48.414745
	C451.791199,45.410629 457.122162,43.659630 461.701965,43.255341
	C468.439209,42.660587 475.534576,41.655899 481.924377,45.921581
	C489.052612,50.680267 492.978424,56.711567 494.211792,65.534569
	C496.383423,81.069534 488.242737,91.030899 478.366608,101.047981
	C465.806427,113.787422 454.011566,127.281227 441.882080,140.445511
	C437.157471,145.573166 432.315613,150.597031 427.708099,155.827576
	C413.838165,171.572998 399.934021,187.291183 386.278320,203.221481
	C374.054230,217.481674 362.065735,231.946396 350.118927,246.440872
	C341.952148,256.349182 334.035370,266.463562 325.753723,276.742371
z"/>
</svg>