<svg version="1.1" id="Layer_1" xmlns="http://www.w3.org/2000/svg" xmlns:xlink="http://www.w3.org/1999/xlink" x="0px" y="0px"
	 width="100%" viewBox="0 0 980 980" enable-background="new 0 0 980 980" xml:space="preserve">
<path fill="#BA2025" opacity="1.000000" stroke="none" 
	d="
M943.939575,648.757446 
	C938.021667,663.243896 932.675232,677.583374 926.132446,691.354553 
	C918.751221,706.890442 911.007080,722.346741 902.111694,737.045288 
	C892.439575,753.027344 881.674927,768.401917 870.598755,783.461853 
	C863.089417,793.672241 854.436829,803.078918 845.899353,812.485413 
	C837.417603,821.830444 828.958069,831.306763 819.558899,839.681885 
	C805.424377,852.276367 791.084595,864.805176 775.725281,875.818298 
	C756.935303,889.291443 737.492432,902.031799 717.406616,913.463318 
	C701.623596,922.446106 684.664978,929.522461 667.802673,936.401733 
	C653.284424,942.324646 638.330139,947.344543 623.263000,951.708374 
	C608.968750,955.848267 594.387451,959.241150 579.731445,961.821228 
	C564.052185,964.581299 548.189087,966.779663 532.314148,967.827515 
	C510.808533,969.246887 489.201965,970.105774 467.664062,969.734253 
	C452.758636,969.477112 437.799591,967.334900 423.038177,964.956787 
	C403.630981,961.830200 384.232452,958.313232 365.139252,953.688171 
	C351.502838,950.384827 338.165771,945.515869 325.072083,940.383667 
	C308.113861,933.736755 291.255157,926.704956 274.852386,918.803406 
	C252.028458,907.808777 230.470001,894.442444 210.151505,879.346802 
	C195.888412,868.750122 182.430252,857.029846 168.986938,845.379456 
	C149.083252,828.130310 131.762772,808.470337 115.183815,787.995911 
	C96.759697,765.242798 81.079079,740.766968 67.307594,715.118042 
	C58.797092,699.267456 51.735764,682.559387 45.076092,665.817688 
	C38.909603,650.315796 33.192139,634.503906 29.005920,618.379639 
	C24.033367,599.226746 20.685698,579.635925 17.034464,560.159790 
	C11.697346,531.691101 11.242638,502.846588 12.196094,474.052429 
	C12.761742,456.970032 14.554646,439.844391 17.094500,422.933258 
	C20.012383,403.505157 23.781416,384.154602 28.299297,365.034668 
	C31.340813,352.162811 35.947586,339.611206 40.537521,327.168427 
	C45.360050,314.095123 50.241398,300.944366 56.459812,288.508911 
	C65.260986,270.908508 74.563316,253.461868 85.037613,236.822083 
	C95.614265,220.019653 106.978645,203.531235 119.649696,188.277344 
	C133.890167,171.134125 149.414032,154.945023 165.407913,139.398804 
	C185.116837,120.241554 207.091324,103.585869 230.158386,88.731201 
	C251.534927,74.965195 273.568909,62.075577 297.433563,52.773232 
	C310.870575,47.535542 323.944305,41.172752 337.683624,36.949787 
	C357.530212,30.849661 377.738098,25.825447 397.974060,21.127075 
	C411.050018,18.091114 424.429230,16.311666 437.718536,14.268625 
	C443.089142,13.442971 448.577484,13.183633 454.020844,13.065938 
	C474.460754,12.623994 494.924988,11.642545 515.339417,12.243929 
	C530.089539,12.678448 544.757141,15.488639 559.493958,16.900816 
	C583.945923,19.243965 607.719788,25.082008 630.983704,32.376232 
	C650.940918,38.633663 670.613281,46.298290 689.549927,55.178226 
	C710.622437,65.059738 731.310974,76.071350 751.057983,88.370941 
	C767.314331,98.496338 782.396179,110.685722 797.175415,122.952103 
	C810.924805,134.363663 823.964722,146.705658 836.636353,159.321686 
	C854.180725,176.789276 869.888611,195.939240 883.644409,216.513916 
	C894.591492,232.887634 905.308960,249.520096 914.633789,266.842224 
	C923.157410,282.675995 930.242859,299.363098 936.911804,316.092804 
	C943.028687,331.437622 948.444702,347.145874 952.879944,363.053558 
	C957.403625,379.278503 960.850220,395.852692 963.831787,412.442322 
	C966.009338,424.558472 967.192261,436.917877 967.886108,449.221466 
	C968.996948,468.920074 970.186401,488.681549 969.740295,508.380188 
	C969.357300,525.293762 967.440979,542.263550 964.912109,559.013672 
	C961.979553,578.437683 958.053711,597.742310 953.744934,616.915771 
	C951.346313,627.589294 947.291382,637.890564 943.939575,648.757446 
M96.196472,399.772217 
	C91.224426,422.741119 87.884468,445.895477 86.598885,469.412384 
	C84.222092,512.890442 88.592957,555.620911 100.074661,597.546753 
	C164.658340,833.376282 418.209167,958.716064 644.546814,866.818726 
	C824.659607,793.689514 928.140259,598.187561 887.373962,407.463654 
	C868.734741,320.260590 826.574158,245.986328 759.058899,187.830215 
	C647.615479,91.835442 519.334656,62.632744 377.832031,102.220695 
	C236.560059,141.744141 130.706665,255.645142 96.196472,399.772217 
z"/>
<path fill="#BA2126" opacity="1.000000" stroke="none" 
	d="
M594.408813,666.599609 
	C559.991821,632.176392 525.828796,597.998901 491.337738,563.493225 
	C489.861938,564.901245 488.545227,566.107422 487.283600,567.368591 
	C454.751190,599.889893 422.254089,632.446533 389.684784,664.930847 
	C372.815887,681.755676 349.387482,683.942200 331.616486,670.518921 
	C311.864807,655.599365 308.868988,626.622131 325.175903,607.973267 
	C326.819305,606.093750 328.594330,604.325500 330.360962,602.558167 
	C362.174561,570.732300 393.987488,538.905701 425.845520,507.124298 
	C427.249023,505.724152 429.080719,504.753143 430.712952,503.582214 
	C430.802460,502.862305 430.891968,502.142365 430.981476,501.422455 
	C429.302826,500.332062 427.369843,499.496765 425.982849,498.113861 
	C393.408081,465.635071 360.859009,433.130341 328.380280,400.555481 
	C313.028198,385.157990 310.282745,363.062439 321.346741,345.669495 
	C335.550232,323.341034 367.050018,319.170593 386.636871,337.367645 
	C397.009064,347.003906 406.786499,357.281372 416.807343,367.294495 
	C440.268738,390.737762 463.731079,414.180176 487.123169,437.692444 
	C488.387817,438.963562 489.012482,440.871490 489.935059,442.483002 
	C490.709534,442.317413 491.484009,442.151794 492.258514,441.986176 
	C493.314941,440.484497 494.178070,438.789978 495.456024,437.509338 
	C528.065796,404.829803 560.661621,372.135834 593.387634,339.572784 
	C611.237000,321.812286 638.289673,321.454041 655.267273,338.483704 
	C670.828552,354.092712 672.017395,379.361237 657.942566,396.327240 
	C656.244019,398.374695 654.354980,400.272430 652.471619,402.157013 
	C620.426453,434.222778 588.376038,466.283234 556.284973,498.302948 
	C554.998352,499.586670 553.299072,500.456818 551.792053,501.519653 
	C551.620850,502.292114 551.449646,503.064575 551.278442,503.837036 
	C553.005920,504.873779 555.031982,505.610901 556.417175,506.991180 
	C588.883301,539.342834 621.241760,571.802551 653.712463,604.149658 
	C663.899353,614.297852 669.085327,626.331604 667.461060,640.675110 
	C665.483215,658.140259 656.009521,670.399170 639.507751,676.424500 
	C622.793457,682.527588 607.730774,678.846924 594.408813,666.599609 
z"/>
</svg>